<svg xmlns="http://www.w3.org/2000/svg" viewBox="0 0 760 300" font-family="-apple-system,Segoe UI,Roboto,Helvetica,Arial,sans-serif" role="img" aria-label="GitHub Actions: Daily DCA Bot run #4 succeeded in 24 seconds">
  <rect x="0" y="0" width="760" height="300" rx="14" fill="#0d1117" stroke="#30363d" stroke-width="1"/>

  <!-- header bar -->
  <text x="28" y="40" fill="#7d8590" font-size="13">Actions</text>
  <text x="90" y="40" fill="#7d8590" font-size="13">·</text>
  <text x="104" y="40" fill="#58a6ff" font-size="13">thanhphuc85 / AuraDCA</text>

  <!-- success check -->
  <circle cx="42" cy="82" r="13" fill="#238636"/>
  <path d="M35.5 82 l4 4 l8 -8" fill="none" stroke="#fff" stroke-width="2.4" stroke-linecap="round" stroke-linejoin="round"/>
  <text x="66" y="88" fill="#e6edf3" font-size="22" font-weight="700">Daily DCA Bot <tspan fill="#7d8590" font-weight="400">#4</tspan></text>

  <line x1="28" y1="112" x2="732" y2="112" stroke="#21262d" stroke-width="1"/>

  <!-- meta row -->
  <text x="28" y="146" fill="#7d8590" font-size="12">Trigger</text>
  <text x="28" y="167" fill="#e6edf3" font-size="14" font-weight="600">workflow_dispatch</text>

  <text x="250" y="146" fill="#7d8590" font-size="12">Status</text>
  <text x="250" y="167" fill="#3fb950" font-size="14" font-weight="700">Success</text>

  <text x="420" y="146" fill="#7d8590" font-size="12">Duration</text>
  <text x="420" y="167" fill="#e6edf3" font-size="14" font-weight="600">24s</text>

  <text x="560" y="146" fill="#7d8590" font-size="12">Commit</text>
  <text x="560" y="167" fill="#58a6ff" font-size="14" font-weight="600">fbfa389 · main</text>

  <!-- job pill -->
  <rect x="28" y="196" width="704" height="46" rx="8" fill="#161b22" stroke="#30363d" stroke-width="1"/>
  <circle cx="52" cy="219" r="9" fill="#238636"/>
  <path d="M48 219 l3 3 l5 -6" fill="none" stroke="#fff" stroke-width="1.8" stroke-linecap="round" stroke-linejoin="round"/>
  <text x="72" y="224" fill="#e6edf3" font-size="14" font-weight="600">dca</text>
  <text x="708" y="224" text-anchor="end" fill="#7d8590" font-size="13">19s</text>

  <!-- steps -->
  <text x="28" y="272" fill="#7d8590" font-size="12">✓ checkout   ✓ setup-node 24   ✓ npm install   ✓ run daily DCA   ✓ commit history</text>
</svg>
